<?xml version="1.0" encoding="UTF-8" standalone="no"?>
<!-- Uploaded to: SVG Repo, www.svgrepo.com, Generator: SVG Repo Mixer Tools -->

<svg
   width="563.46637"
   height="666.63232"
   viewBox="0 0 33.807982 39.997939"
   id="b"
   version="1.1"
   xmlns="http://www.w3.org/2000/svg"
   xmlnsSvg="http://www.w3.org/2000/svg">
  <defs
     id="defs1">
    <style
       id="style1">.c{fill:none;stroke:#000000;stroke-linecap:round;stroke-linejoin:round;}</style>
  </defs>
  <path
     class="c"
     d="m 29.019846,20.076584 c 1.6458,-1.3555 2.8259,-3.3943 1.5218,-6.2892 -2.8204,-6.2612996 -11.9291,-1.4316 -19.2916,0 -8.1227999,1.5794 -12.5789999,4.7383 -10.0406999,8.01 0.9832,1.2672 2.4403,1.9844 3.8567,2.3874"
     id="path1"
     style="display:inline;stroke:#ffffff;stroke-opacity:1" />
  <path
     class="c"
     d="M 23.941946,10.721584 V 3.4646844 c -1.9743,-3.27170004 -7.2444,-3.83380004 -14.1584999,-1.6922 -6.3741,1.9743 -8.3484,5.9229 -8.3484,5.9229 3.2717,6.0356996 3.2661,8.0405996 3.2661,8.0405996"
     id="path2"
     style="stroke:#ffffff;stroke-opacity:1" />
  <path
     class="c"
     d="m 30.823746,24.689084 c -2.9332,-11.0975 -9.6443,-9.4684 -16.772,-7.6864 -7.4458999,1.8615 -10.3602999,5.1896 -8.6116999,12.3534"
     id="path3"
     style="display:inline;stroke:#ffffff;stroke-opacity:1" />
  <path
     class="c"
     d="m 29.996446,25.764684 c 0.7644,-1.3093 3.6853,-1.6617 3.2717,1.3091 -0.3137,2.2532 -1.7078,2.4045 -2.4445,1.8859 -0.3383,2.2578 -4.1553,12.1856 -15.813,10.3054 -3.444,-0.5555 -5.4831999,-1.9741 -6.6471999,-3.6975"
     id="path4"
     style="stroke:#ffffff;stroke-opacity:1" />
  <path
     class="c"
     d="m 11.099646,28.716784 c -2.8203999,-0.3008 -3.3092999,2.67 -4.4185999,2.6324 -1.1093,-0.0376 -1.2786,-0.7521 -1.7337,-2.3879 0,0 -1.3876,2.5948 -0.203,4.8323 1.1846,2.2375 6.4304999,1.147 8.1603999,-1.4478 2.3503,1.6358 10.0031,4.193 10.8116,-0.8461 0.2017,-1.2568 0.015,-2.3417 -0.3789,-3.2623 -0.3357,1.6453 -1.3698,2.811 -2.9868,2.3598 -1.617,-0.4512 -1.9931,-1.9743 -5.0767,-2.2187"
     id="path5"
     style="stroke:#ffffff;stroke-opacity:1" />
  <path
     class="c"
     d="m 10.968046,26.686084 c -0.282,1.0906 0.2506,3.4806 2.1811,3.1589 2.0307,-0.3384 2.6136,-1.8239 1.7299,-3.4973"
     id="path6"
     style="stroke:#ffffff;stroke-opacity:1" />
  <path
     class="c"
     d="m 18.808846,18.582084 c 1.5606,-0.3573 3.8358,0.1692 4.6255,2.2751"
     id="path7"
     style="stroke:#ffffff;stroke-opacity:1" />
  <line
     class="c"
     x1="29.878647"
     y1="21.836983"
     x2="28.059746"
     y2="22.436584"
     id="line7"
     style="stroke:#ffffff;stroke-opacity:1" />
  <line
     class="c"
     x1="28.059746"
     y1="24.184784"
     x2="30.462845"
     y2="23.446384"
     id="line8"
     style="stroke:#ffffff;stroke-opacity:1" />
  <path
     class="c"
     d="m 10.442846,34.300484 c 0.5628,1.5049 4.4891,4.5968 6.907,-0.1268"
     id="path8"
     style="stroke:#ffffff;stroke-opacity:1" />
  <path
     class="c"
     d="m 8.5147461,19.177684 c 1.7199999,-0.0692 2.5284999,0.8898 2.5284999,0.8898"
     id="path9"
     style="stroke:#ffffff;stroke-opacity:1" />
  <ellipse
     class="c"
     cx="8.6553459"
     cy="23.815584"
     rx="1.4535"
     ry="1.7875"
     id="ellipse9"
     style="fill:#ffffff;fill-opacity:1;stroke:#ffffff;stroke-opacity:1" />
  <ellipse
     class="c"
     cx="19.673145"
     cy="23.268684"
     rx="1.4614"
     ry="1.7875"
     id="ellipse10"
     style="display:inline;fill:#ffffff;fill-opacity:1;stroke:#ffffff;stroke-opacity:1" />
  <path
     style="fill:#ffffff;fill-opacity:1;stroke-width:0.0631578"
     d="m 16.934225,39.951127 c -0.208421,-0.01312 -0.748421,-0.06865 -1.2,-0.123415 C 12.231014,39.402883 9.7033277,38.151445 8.1708173,36.083127 8.0328677,35.896946 7.9160951,35.680205 7.9113227,35.60148 7.9029107,35.462709 7.8785711,35.457347 7.1131727,35.425639 6.0566129,35.381871 5.4397427,35.165858 4.8259055,34.624693 4.4561567,34.298718 4.0711889,33.556867 3.9206495,32.880221 3.7783187,32.240472 3.8208101,30.88972 4.0049447,30.200584 4.1863091,29.521816 4.4692157,28.821284 4.6340195,28.642873 4.7737631,28.491591 4.7745473,28.481386 4.6856375,27.971236 4.5440765,27.158985 4.4483861,25.911139 4.4712341,25.175313 L 4.4921195,24.502678 4.0500143,24.331634 C 2.2092995,23.619486 0.75725026,22.35258 0.21859786,20.988741 c -0.20373,-0.515834 -0.2018874,-1.52808 0.003732,-2.049441 0.213834,-0.542193 0.7125006,-1.248208 1.19297944,-1.689026 0.5143122,-0.471859 1.5539004,-1.176305 2.249331,-1.52419 0.2814306,-0.140785 0.51801,-0.261355 0.525732,-0.267934 C 4.2297963,15.42456 3.9317855,14.350501 3.6983363,13.684795 3.2962217,12.538124 2.7032963,11.204667 1.8015209,9.4189574 1.3534565,8.5316936 0.98685826,7.7560874 0.98685826,7.6953884 c 0,-0.1716342 0.20885644,-0.5407296 0.61570324,-1.088085 C 2.9242643,4.8291386 5.0335799,3.229625 7.4921213,2.1411956 9.9077429,1.0717677 13.278182,0.25953268 16.085121,0.070387 c 3.721152,-0.25074996 6.733986,0.83320146 8.072639,2.9043574 l 0.260677,0.4033182 3.6e-4,3.4165242 3.6e-4,3.4165242 0.89964,0.0058 c 2.682443,0.01737 4.455626,1.030487 5.509866,3.148096 0.458551,0.921072 0.665042,1.651015 0.709171,2.506908 0.07521,1.458694 -0.419938,2.726046 -1.517777,3.884829 l -0.409001,0.431707 0.254545,0.506055 c 0.368473,0.732555 0.77405,1.768001 1.086618,2.774157 l 0.27295,0.878628 0.559792,0.0066 c 0.65669,0.0077 0.989535,0.133025 1.37372,0.51705 0.550072,0.549843 0.735834,1.466659 0.516497,2.549132 -0.286391,1.413398 -1.048498,2.220549 -2.112454,2.237309 l -0.403081,0.0064 -0.243251,0.726308 c -0.133787,0.399468 -0.468456,1.181044 -0.743709,1.736833 -2.155385,4.352153 -5.860986,7.11865 -10.315786,7.701475 -0.752138,0.0984 -2.285942,0.162822 -2.92267,0.122752 z m 2.147368,-0.975055 c 3.958354,-0.34113 7.210548,-2.338887 9.458004,-5.80986 0.768719,-1.187211 1.428324,-2.653014 1.724626,-3.832532 0.21514,-0.856429 0.359271,-0.964051 0.944437,-0.705204 0.52335,0.231503 0.942441,0.06458 1.248166,-0.497136 0.372774,-0.684909 0.480213,-1.837212 0.219504,-2.354215 -0.196752,-0.390173 -0.460429,-0.518656 -0.994737,-0.484709 -0.516591,0.03282 -0.830746,0.19066 -1.207885,0.606867 -0.229712,0.253506 -0.333273,0.322354 -0.48489,0.322354 -0.214728,0 -0.454593,-0.242168 -0.454593,-0.458957 0,-0.189351 0.227341,-0.520123 0.542824,-0.78979 l 0.281229,-0.240388 -0.112026,-0.352483 -0.112027,-0.352483 -0.978947,0.305858 c -0.538422,0.168221 -1.039747,0.306631 -1.114056,0.307577 -0.180025,0.0023 -0.387197,-0.180554 -0.435236,-0.38413 -0.07627,-0.32321 0.152317,-0.470531 1.233502,-0.794969 0.538421,-0.161568 0.988293,-0.300536 0.999714,-0.308816 0.0342,-0.0248 -0.198458,-0.720892 -0.240944,-0.720892 -0.02157,0 -0.334593,0.09947 -0.695612,0.221052 -0.803926,0.270735 -1.017748,0.280508 -1.195416,0.05464 -0.29882,-0.379887 -0.08291,-0.630001 0.784889,-0.909236 0.347369,-0.111773 0.656198,-0.225728 0.686286,-0.253232 0.07912,-0.07232 -0.662338,-1.458036 -1.133324,-2.118077 -1.233461,-1.728573 -2.744026,-2.704891 -4.795067,-3.099179 -0.85101,-0.163597 -2.676996,-0.148414 -3.934359,0.03271 -2.375399,0.342184 -6.325942,1.31958 -8.036982,1.988416 -0.938949,0.36703 -1.258805,0.506481 -1.259595,0.549162 -3.6e-4,0.01907 0.105936,0.07197 0.2362,0.117545 0.350032,0.122465 0.800068,0.423339 1.054561,0.705033 0.24619,0.272502 0.259177,0.317302 0.150912,0.520578 -0.199327,0.374248 -0.430126,0.378081 -0.897821,0.01491 -0.441938,-0.343171 -0.9437709,-0.538576 -1.5037173,-0.58552 l -0.4225386,-0.03542 -0.4301724,0.319342 c -0.4951206,0.367558 -1.3605408,1.240414 -1.6421166,1.656227 -1.1605632,1.713842 -1.423671,3.892335 -0.8303496,6.875161 l 0.1929252,0.969898 -0.130548,0.176576 c -0.1253964,0.169608 -0.1264788,0.187411 -0.027431,0.451154 0.1614258,0.429841 0.3701592,0.672046 0.6519228,0.756465 0.3495282,0.104721 0.4719432,0.02526 1.0422294,-0.676564 0.9438414,-1.161532 1.7229948,-1.717691 2.6220521,-1.871621 l 0.406933,-0.06967 v -0.847805 -0.847805 l 0.177207,-0.152631 c 0.221478,-0.190762 0.424936,-0.194351 0.59676,-0.01053 0.11879,0.127089 0.131988,0.212186 0.124899,0.805263 -0.01654,1.383412 0.512461,2.209384 1.415534,2.210203 0.765364,6.96e-4 1.566576,-0.391663 1.835446,-0.89883 0.209646,-0.395451 0.195464,-1.07732 -0.03347,-1.60947 -0.09295,-0.216058 -0.169003,-0.464742 -0.169003,-0.552631 0,-0.316918 0.386099,-0.514449 0.68885,-0.352422 0.224147,0.11996 0.632115,1.295792 0.636581,1.834729 0.0012,0.148457 0.03558,0.16455 0.57477,0.269234 0.801354,0.155585 1.497464,0.447958 2.201856,0.924801 0.331763,0.22459 0.802154,0.542277 1.045311,0.705972 0.243158,0.163694 0.578099,0.343159 0.744313,0.39881 0.406424,0.136077 1.021334,0.128437 1.339898,-0.01665 0.492079,-0.224109 0.966321,-0.935194 1.164008,-1.745326 0.09807,-0.4019 0.220707,-0.536843 0.487886,-0.536843 0.293311,0 0.421404,0.154208 0.609979,0.734329 0.244579,0.752413 0.312162,1.184324 0.310043,1.981461 -0.0061,2.294213 -1.003745,3.698324 -3.014021,4.242007 -0.427348,0.115578 -0.670833,0.136273 -1.578948,0.134207 -0.673441,-0.0015 -1.255075,-0.03714 -1.560281,-0.09551 l -0.486597,-0.09306 -0.277187,0.416706 c -1.058232,1.590886 -2.50066,2.280309 -4.04982,1.935654 -0.961277,-0.213864 -2.072748,-0.918404 -2.744993,-1.74 -0.187534,-0.229198 -0.328458,-0.34497 -0.414252,-0.340317 -0.07151,0.0039 -0.4053665,0.08723 -0.7418915,0.185236 l -0.6118644,0.178185 0.1342122,0.193711 c 0.276831,0.399555 1.2970407,1.357637 1.7842527,1.675599 1.317831,0.860036 2.988657,1.42008 4.989474,1.672423 1.302398,0.164258 2.287365,0.191654 3.410526,0.09486 z M 15.08484,35.997084 c 0.198627,-0.09164 0.508454,-0.3036 0.688505,-0.47103 0.383906,-0.356994 0.813511,-0.882163 0.813511,-0.99447 0,-0.04329 -0.177631,-0.128016 -0.394737,-0.188279 -0.615781,-0.170924 -1.763732,-0.636473 -2.497169,-1.012722 l -0.667859,-0.342608 -0.495198,0.465846 c -0.272359,0.256216 -0.707297,0.598042 -0.966528,0.759614 -0.549696,0.34261 -0.550715,0.320994 0.04166,0.883841 0.498149,0.473317 0.935491,0.753327 1.488708,0.953151 0.59747,0.215808 1.455587,0.192796 1.989108,-0.05334 z M 8.6605409,34.389302 c 1.4773681,-0.286256 2.9209611,-1.100983 3.7009461,-2.088718 0.39441,-0.499462 0.508996,-0.509161 1.18242,-0.100089 1.273797,0.773771 3.240513,1.450499 4.937686,1.699011 0.845756,0.123842 2.021556,0.09513 2.610255,-0.06373 1.133806,-0.305962 1.808137,-0.975321 2.090397,-2.074982 0.11705,-0.456018 0.187496,-1.530501 0.116254,-1.773182 l -0.05325,-0.181391 -0.260846,0.345487 c -0.625563,0.828553 -1.651807,1.172604 -2.690602,0.902032 -0.51225,-0.133424 -0.909515,-0.348347 -1.812209,-0.980419 -0.43421,-0.304038 -0.908206,-0.612469 -1.053325,-0.685403 -0.324071,-0.162874 -1.203525,-0.420632 -1.633779,-0.478842 -0.300516,-0.04066 -0.323832,-0.0335 -0.408989,0.12562 -0.141766,0.264893 -0.723163,0.761977 -1.099395,0.939963 -0.755379,0.357351 -1.617273,0.444152 -2.209614,0.222529 -0.365383,-0.136708 -0.894778,-0.563819 -1.043668,-0.842023 -0.07968,-0.148886 -0.124334,-0.165109 -0.454431,-0.165109 -0.8110731,0 -1.4055585,0.361593 -2.2375581,1.360985 -0.7110312,0.854084 -1.024182,1.131534 -1.373463,1.216885 C 6.6204863,31.852692 6.1053725,31.766986 5.7658607,31.56802 5.4377117,31.375712 5.3310359,31.258548 5.1008489,30.837617 5.0003363,30.653815 4.9018343,30.529749 4.8819551,30.561915 c -0.082246,0.133077 -0.1728132,1.212166 -0.1338516,1.594825 0.023086,0.226746 0.1157412,0.639634 0.205899,0.917529 0.1356996,0.418269 0.2191392,0.560691 0.4846206,0.827193 0.6127572,0.615111 1.7086734,0.781047 3.2219178,0.48784 z M 4.8672437,23.027096 c 0.8485674,-2.721652 3.1756188,-4.635689 7.2354023,-5.951237 1.768774,-0.57316 5.653346,-1.457966 7.421053,-1.690325 1.066969,-0.14025 2.870298,-0.142903 3.695487,-0.0054 2.26164,0.376759 4.027402,1.449617 5.412815,3.288768 0.263908,0.35034 0.499201,0.636983 0.522875,0.636983 0.13265,0 0.799167,-0.889598 1.041039,-1.389474 0.326031,-0.673804 0.412147,-1.047796 0.411551,-1.787319 -0.0011,-1.348962 -0.62451,-2.794589 -1.608074,-3.728877 -1.319902,-1.253779 -3.406659,-1.564438 -6.602009,-0.982854 -1.217328,0.221566 -2.769208,0.614575 -5.589474,1.415517 -2.873342,0.816016 -4.051631,1.118827 -5.545324,1.425103 -2.0450839,0.419335 -3.7822681,0.892728 -5.1283597,1.397508 -1.1055078,0.414561 -2.6964288,1.208413 -3.3321978,1.662729 -0.6980178,0.498798 -1.3499946,1.184036 -1.591524,1.672716 -0.25395544,0.513821 -0.29361964,1.168597 -0.1017396,1.679495 0.3913656,1.042044 1.5614058,2.093848 2.9785152,2.677529 0.2921364,0.120325 0.5491224,0.219293 0.5710812,0.219929 0.021959,6.36e-4 0.115956,-0.242703 0.2088834,-0.540754 z m 0.7442844,-8.166163 c 1.259241,-0.498054 3.3711606,-1.086229 5.3542759,-1.491183 1.520403,-0.310467 2.720802,-0.617154 5.557895,-1.419974 1.337368,-0.378439 2.815263,-0.788639 3.28421,-0.911555 0.821741,-0.215386 2.743485,-0.614969 3.363158,-0.699291 l 0.3,-0.04082 V 6.9287012 3.5592956 L 23.227994,3.2536244 C 22.312662,2.1025688 21.026952,1.4372703 19.081593,1.1080426 18.305317,0.9766675 16.104085,0.9587956 15.165804,1.07625 12.740771,1.3798168 9.9335525,2.1013514 8.0289617,2.9106212 6.1643177,3.702917 4.5246965,4.807679 3.2263463,6.1465814 c -0.5819154,0.60009 -1.2289632,1.413807 -1.2289632,1.5455232 0,0.029935 0.3096336,0.6657996 0.6880746,1.4130324 1.0792272,2.130937 1.801821,3.84663 2.1815034,5.179658 0.2185392,0.767269 0.2154084,0.757895 0.2531112,0.757895 0.017555,0 0.2387094,-0.08179 0.4914558,-0.181757 z"
     id="path10" />
  <path
     style="display:inline;fill:#ffffff;stroke:#ffffff;stroke-width:0.0631578;stroke-opacity:1"
     d="m 8.2368989,26.009165 c -1.362348,-0.377707 -1.941972,-2.272931 -1.0891818,-3.561349 0.8306814,-1.255017 2.4594036,-1.135574 3.1519749,0.23115 0.08509,0.167914 0.189474,0.493987 0.231967,0.724608 0.280395,1.521758 -0.9921949,2.966724 -2.2947601,2.605591 z m 0.895845,-1.038842 c 0.5916792,-0.437219 0.6643116,-1.602839 0.1345764,-2.159706 -0.397869,-0.418248 -0.8518062,-0.419057 -1.2284196,-0.0022 -0.743394,0.822847 -0.2420442,2.442923 0.7148958,2.310134 0.1207644,-0.01676 0.291291,-0.08347 0.3789474,-0.148238 z"
     id="path11" />
  <path
     style="display:inline;opacity:1;fill:#0e73f6;fill-opacity:1;stroke:#ffffff;stroke-width:0.06;stroke-opacity:1"
     d="m 23.142454,21.184795 c -0.05256,-0.06079 -0.191962,-0.294894 -0.309789,-0.520232 -0.423022,-0.809014 -1.203316,-1.386329 -2.188934,-1.619526 -0.329817,-0.07803 -0.606024,-0.0919 -1.230322,-0.06178 -0.749855,0.03619 -0.8137,0.03018 -0.931579,-0.0877 -0.161845,-0.161845 -0.162067,-0.443561 -4.8e-4,-0.616998 0.171107,-0.183662 0.469385,-0.236238 1.326565,-0.233829 1.3012,0.0037 2.255227,0.386775 3.133013,1.258155 0.393276,0.390405 0.565314,0.619573 0.742106,0.988536 0.267558,0.558393 0.274264,0.614986 0.09924,0.837487 -0.156564,0.199039 -0.490809,0.228234 -0.639818,0.05589 z"
     id="path12" />
  <path
     style="opacity:1;fill:#0e73f6;fill-opacity:1;stroke:#ffffff;stroke-width:0.0631578;stroke-opacity:1"
     d="m 19.128834,25.342053 c -0.533774,-0.190485 -0.986968,-0.713539 -1.19367,-1.377672 -0.269977,-0.867439 -0.01689,-1.814397 0.644646,-2.412059 0.352778,-0.318713 0.626685,-0.42279 1.112687,-0.42279 0.503519,0 0.857898,0.158484 1.211041,0.5416 0.47456,0.514837 0.546476,0.723039 0.546476,1.582084 0,0.671832 -0.01665,0.789088 -0.146592,1.032594 -0.485092,0.909019 -1.375383,1.341451 -2.174588,1.056243 z m 1.087525,-0.896782 c 0.331454,-0.278899 0.469126,-0.61946 0.469126,-1.160476 0,-0.529348 -0.123177,-0.843297 -0.454218,-1.157696 -0.365588,-0.347209 -1.010346,-0.251431 -1.330069,0.197578 -0.320839,0.450576 -0.345761,1.331456 -0.0503,1.777924 0.345963,0.522787 0.966374,0.678482 1.365463,0.34267 z"
     id="path14" />
  <path
     style="opacity:1;fill:#ffffff;fill-opacity:1;stroke:#ffffff;stroke-width:0.0631578;stroke-opacity:1"
     d="m 18.99537,25.368435 c -0.845152,-0.421862 -1.286739,-1.242415 -1.226706,-2.279451 0.08947,-1.545502 1.499594,-2.505375 2.711544,-1.84575 1.52753,0.831387 1.463425,3.362764 -0.103878,4.101923 -0.406567,0.191742 -1.022656,0.202127 -1.38096,0.02328 z m 1.128329,-0.938626 c 0.264075,-0.152427 0.479565,-0.572507 0.519478,-1.012684 0.121524,-1.340183 -1.186158,-2.000046 -1.766847,-0.891559 -0.328719,0.627496 -0.193069,1.495396 0.290676,1.859775 0.329723,0.248361 0.583055,0.260136 0.956693,0.04447 z"
     id="path16" />
  <path
     style="opacity:1;fill:#ffffff;fill-opacity:1;stroke:#ffffff;stroke-width:0.0631578;stroke-opacity:1"
     d="m 23.270296,21.232945 c -0.06868,-0.0481 -0.254926,-0.3113 -0.413888,-0.584882 -0.714698,-1.230033 -1.848702,-1.782823 -3.47122,-1.692107 -0.690919,0.03863 -0.746883,0.03292 -0.868421,-0.08862 -0.17577,-0.17577 -0.163436,-0.392149 0.03288,-0.576796 0.154191,-0.145026 0.210711,-0.154191 1.069987,-0.173503 0.680822,-0.0153 1.00662,0.0049 1.305631,0.08108 1.185517,0.301907 2.230712,1.12578 2.748104,2.166186 0.258221,0.519249 0.23949,0.688391 -0.09541,0.861575 -0.156563,0.08096 -0.200715,0.08198 -0.307663,0.0071 z"
     id="path17" />
</svg>
