<svg width="80" height="54" viewBox="0 0 80 54" fill="none" xmlns="http://www.w3.org/2000/svg">
<rect width="70" height="40" fill="url(#paint0_linear_814_1167)"/>
<path d="M48 28.333C48 27.5968 47.3763 27 46.6072 27H39.3928C38.6234 27 38 27.5968 38 28.333V47H48V28.333Z" fill="#84909A"/>
<path d="M74 20.3558C74 19.6068 73.3763 19 72.6072 19H65.3928C64.6237 19 64 19.6068 64 20.3558V47H74V20.3558Z" fill="#84909A"/>
<path d="M61 30.3674C61 29.6124 60.3766 29 59.6075 29H52.3925C51.6234 29 51 29.6124 51 30.3674V47H61V30.3674Z" fill="#84909A"/>
<path d="M75.6068 50H36.3932C35.6236 50 35 50.6714 35 51.4998C35 52.3286 35.6236 53 36.3932 53H75.6068C76.3761 53 77 52.3286 77 51.4998C77 50.6714 76.3761 50 75.6068 50Z" fill="#84909A"/>
<path d="M45.3502 23C45.39 23 45.4305 22.9982 45.4706 22.9947C45.5928 22.9833 48.5091 22.7046 52.649 21.1895C56.4502 19.7982 62.0641 17.0473 67.2238 11.8425C67.2495 11.8166 67.2729 11.7893 67.2962 11.7616V13.9107C67.2962 14.6823 67.9014 15.3074 68.6479 15.3074C69.3945 15.3074 70 14.6823 70 13.9107V8.39668C70 7.62512 69.3945 7 68.6479 7H63.3097C62.5631 7 61.958 7.62512 61.958 8.39668C61.958 9.16789 62.5631 9.79301 63.3097 9.79301H65.3912C65.3723 9.81003 65.3527 9.82599 65.3345 9.84443C60.5562 14.6649 55.3559 17.2253 51.8349 18.5242C47.9973 19.94 45.2585 20.2098 45.2314 20.2123C44.4886 20.2811 43.9398 20.9583 44.0053 21.726C44.0674 22.4529 44.6575 23 45.3502 23Z" fill="#84909A"/>
<defs>
<linearGradient id="paint0_linear_814_1167" x1="5.21541e-07" y1="20" x2="70" y2="20" gradientUnits="userSpaceOnUse">
<stop stop-color="#252C32" stop-opacity="0.15"/>
<stop offset="0.979167" stop-color="white" stop-opacity="0"/>
</linearGradient>
</defs>
</svg>
