<svg width="80" height="54" viewBox="0 0 80 54" fill="none" xmlns="http://www.w3.org/2000/svg">
<rect width="70" height="40" fill="url(#paint0_linear_803_232)"/>
<path d="M49.4067 28.2362C47.6765 26.5156 46.6055 24.1329 46.6055 21.5C46.6055 18.8671 47.6765 16.4844 49.4067 14.7638C48.4106 14.2747 47.2901 14 46.1055 14C41.9633 14 38.6055 17.3579 38.6055 21.5C38.6055 25.6421 41.9633 29 46.1055 29C47.2901 29 48.4106 28.7253 49.4067 28.2362Z" fill="#84909A"/>
<path d="M48.6055 21.5C48.6055 17.3579 51.9633 14 56.1054 14C60.2476 14 63.6054 17.3579 63.6054 21.5C63.6054 25.6421 60.2476 29 56.1054 29C51.9633 29 48.6055 25.6421 48.6055 21.5Z" fill="#84909A"/>
<path d="M62.8042 14.7638C64.5344 16.4844 65.6054 18.8671 65.6054 21.5C65.6054 24.1329 64.5344 26.5156 62.8042 28.2362C63.8004 28.7253 64.9208 29 66.1054 29C70.2476 29 73.6054 25.6421 73.6054 21.5C73.6054 17.3579 70.2476 14 66.1054 14C64.9208 14 63.8004 14.2747 62.8042 14.7638Z" fill="#84909A"/>
<path d="M42.6055 39.5C42.6055 35.3578 45.9633 32 50.1055 32H62.1054C66.2476 32 69.6054 35.3578 69.6054 39.5C69.6054 43.6422 66.2476 47 62.1054 47H50.1055C45.9633 47 42.6055 43.6422 42.6055 39.5Z" fill="#84909A"/>
<path d="M32.6055 37.5C32.6055 33.3578 35.9633 30 40.1055 30H50.1055C44.8588 30 40.6055 34.2532 40.6055 39.5C40.6055 41.5498 41.2546 43.4478 42.3586 45H40.1055C35.9633 45 32.6055 41.6422 32.6055 37.5Z" fill="#84909A"/>
<path d="M71.6054 39.5C71.6054 41.5498 70.9564 43.4478 69.8524 45H72.1054C76.2476 45 79.6054 41.6422 79.6054 37.5C79.6054 33.3578 76.2476 30 72.1054 30H62.1054C67.3522 30 71.6054 34.2532 71.6054 39.5Z" fill="#84909A"/>
<defs>
<linearGradient id="paint0_linear_803_232" x1="5.21541e-07" y1="20" x2="70" y2="20" gradientUnits="userSpaceOnUse">
<stop stop-color="#252C32" stop-opacity="0.15"/>
<stop offset="0.979167" stop-color="white" stop-opacity="0"/>
</linearGradient>
</defs>
</svg>
