<svg width="84" height="54" viewBox="0 0 84 54" fill="none" xmlns="http://www.w3.org/2000/svg">
<rect width="70" height="40" fill="url(#paint0_linear_814_1143)"/>
<g clip-path="url(#clip0_814_1143)">
<path d="M36.011 26.9119C35.9067 27.7509 36.561 28.4916 37.4064 28.4916H43.1276C43.8143 28.4916 44.4007 27.9956 44.5144 27.3183C45.6155 20.7609 50.7608 15.6154 57.3182 14.5144C57.9955 14.4007 58.4916 13.8144 58.4916 13.1276V7.40641C58.4916 6.56097 57.7509 5.90669 56.9119 6.01094C51.6366 6.66653 46.653 9.10581 42.8794 12.8793C39.1058 16.653 36.6666 21.6365 36.011 26.9119Z" fill="#2D48FF"/>
<path d="M68.9602 42.6261C66.2912 44.5318 63.1615 45.5391 59.9096 45.5391C52.2577 45.5391 45.7831 40.0556 44.5145 32.5005C44.4007 31.8233 43.8144 31.3271 43.1277 31.3271H37.4064C36.561 31.3271 35.9067 32.0678 36.011 32.9067V32.9068C37.5054 44.9318 47.7796 53.9998 59.9096 53.9998C65.3134 53.9998 70.4237 52.2459 74.6882 48.9276C75.3557 48.4082 75.417 47.4214 74.819 46.8234L70.7718 42.7762C70.2857 42.2902 69.5196 42.2267 68.9602 42.6261Z" fill="#2D48FF"/>
<path d="M62.5007 14.5144C70.0557 15.7831 75.5393 22.2576 75.5393 29.9096C75.5393 33.1615 74.532 36.2911 72.6263 38.9602C72.227 39.5195 72.2904 40.2857 72.7764 40.7717L76.8238 44.819C77.4218 45.4171 78.4086 45.3557 78.9279 44.6882L78.928 44.6882C82.2461 40.4238 84 35.3134 84 29.9096C84 17.7796 74.9319 7.50541 62.907 6.01094H62.9069C62.0679 5.90669 61.3272 6.56097 61.3272 7.40641V13.1276C61.3273 13.8144 61.8233 14.4007 62.5007 14.5144Z" fill="#2D48FF"/>
<path d="M60.846 20.2471H58.9699C58.1933 20.2471 57.5636 20.8767 57.5636 21.6533V38.0594H62.2523V21.6533C62.2523 20.8767 61.6226 20.2471 60.846 20.2471Z" fill="#2D48FF"/>
<path d="M65.0648 38.0595H68.3471C69.1238 38.0595 69.7534 37.4299 69.7534 36.6532V25.4033C69.7534 24.6267 69.1238 23.9971 68.3471 23.9971H65.0648V38.0595Z" fill="#2D48FF"/>
<path d="M54.7511 27.7471H51.4723C50.6957 27.7471 50.0661 28.3767 50.0661 29.1533V36.6532C50.0661 37.4299 50.6957 38.0595 51.4723 38.0595H54.7511V27.7471Z" fill="#2D48FF"/>
</g>
<defs>
<linearGradient id="paint0_linear_814_1143" x1="5.21541e-07" y1="20" x2="70" y2="20" gradientUnits="userSpaceOnUse">
<stop stop-color="#4B4EFC" stop-opacity="0.15"/>
<stop offset="0.979167" stop-color="white" stop-opacity="0"/>
</linearGradient>
<clipPath id="clip0_814_1143">
<rect width="48" height="48" fill="white" transform="translate(36 6)"/>
</clipPath>
</defs>
</svg>
