<svg width="1440" height="766" viewBox="0 0 1440 766" fill="none" xmlns="http://www.w3.org/2000/svg">
<rect opacity="0.03" width="1440" height="766" fill="#2B61FE"/>
<path d="M1290 -2.38419e-06C1290 19.8296 1293.88 39.465 1301.42 57.7852C1308.96 76.1054 1320.01 92.7515 1333.93 106.773C1347.86 120.795 1364.4 131.917 1382.6 139.506C1400.8 147.094 1420.3 151 1440 151L1440 -2.38419e-06H1290Z" fill="#EDF2FF"/>
<path d="M150 766C150 746.433 146.12 727.058 138.582 708.98C131.044 690.903 119.995 674.477 106.066 660.641C92.1372 646.805 75.6014 635.83 57.4025 628.342C39.2037 620.854 19.6983 617 0 617L6.55671e-06 766H150Z" fill="#EDF2FF"/>
</svg>
