<svg width="274" height="30" viewBox="0 0 274 30" fill="none" xmlns="http://www.w3.org/2000/svg">
<path d="M33.1729 8.57919V5.81818H47.6793V8.57919H42.0596V24H38.7926V8.57919H33.1729ZM50.4758 24V5.81818H57.294C58.6908 5.81818 59.8627 6.06084 60.8096 6.54616C61.7625 7.03149 62.4816 7.71212 62.9669 8.58807C63.4582 9.4581 63.7038 10.4731 63.7038 11.6332C63.7038 12.7991 63.4552 13.8112 62.9581 14.6694C62.4668 15.5217 61.7418 16.1816 60.783 16.6491C59.8242 17.1108 58.6464 17.3416 57.2496 17.3416H52.3934V14.6072H56.8057C57.6225 14.6072 58.2913 14.4948 58.8121 14.2699C59.333 14.0391 59.7177 13.7047 59.9662 13.2667C60.2207 12.8228 60.348 12.2783 60.348 11.6332C60.348 10.988 60.2207 10.4376 59.9662 9.98189C59.7117 9.52024 59.3241 9.17105 58.8032 8.9343C58.2824 8.69164 57.6107 8.57031 56.788 8.57031H53.7695V24H50.4758ZM59.8686 15.7614L64.3696 24H60.6942L56.2731 15.7614H59.8686ZM69.0705 24H65.5548L71.9558 5.81818H76.0218L82.4316 24H78.916L74.0598 9.54688H73.9178L69.0705 24ZM69.1859 16.8711H78.7739V19.5167H69.1859V16.8711ZM90.9876 24H84.8264V5.81818H91.1119C92.9171 5.81818 94.4677 6.18217 95.7639 6.91016C97.066 7.63222 98.0662 8.67093 98.7646 10.0263C99.463 11.3816 99.8122 13.0033 99.8122 14.8913C99.8122 16.7853 99.4601 18.4129 98.7557 19.7741C98.0574 21.1354 97.0482 22.18 95.7284 22.908C94.4145 23.636 92.8342 24 90.9876 24ZM88.1201 21.1502H90.8278C92.0944 21.1502 93.1509 20.9194 93.9972 20.4577C94.8436 19.9902 95.4798 19.2947 95.906 18.3714C96.3321 17.4422 96.5452 16.2822 96.5452 14.8913C96.5452 13.5005 96.3321 12.3464 95.906 11.429C95.4798 10.5057 94.8495 9.81617 94.015 9.36044C93.1864 8.89879 92.1565 8.66797 90.9255 8.66797H88.1201V21.1502ZM102.942 24V5.81818H114.767V8.57919H106.235V13.5153H114.154V16.2763H106.235V21.239H114.838V24H102.942ZM134.209 10.8164C134.127 10.0411 133.777 9.43738 133.162 9.00533C132.552 8.57327 131.759 8.35724 130.783 8.35724C130.096 8.35724 129.507 8.46082 129.016 8.66797C128.525 8.87512 128.149 9.15625 127.888 9.51136C127.628 9.86648 127.495 10.2719 127.489 10.7276C127.489 11.1064 127.575 11.4349 127.746 11.7131C127.924 11.9912 128.164 12.228 128.465 12.4233C128.767 12.6127 129.102 12.7725 129.469 12.9027C129.836 13.0329 130.205 13.1424 130.578 13.2312L132.283 13.6573C132.969 13.8171 133.629 14.0331 134.263 14.3054C134.902 14.5777 135.473 14.9209 135.976 15.3352C136.485 15.7495 136.888 16.2496 137.183 16.8356C137.479 17.4215 137.627 18.1081 137.627 18.8952C137.627 19.9606 137.355 20.8987 136.811 21.7095C136.266 22.5144 135.479 23.1448 134.449 23.6005C133.425 24.0503 132.185 24.2752 130.729 24.2752C129.315 24.2752 128.087 24.0562 127.045 23.6183C126.009 23.1803 125.198 22.5411 124.612 21.7006C124.032 20.8602 123.719 19.8363 123.671 18.6289H126.912C126.959 19.2622 127.154 19.7889 127.498 20.2092C127.841 20.6294 128.288 20.9431 128.838 21.1502C129.395 21.3574 130.016 21.4609 130.703 21.4609C131.419 21.4609 132.046 21.3544 132.585 21.1413C133.129 20.9223 133.555 20.6205 133.863 20.2358C134.171 19.8452 134.328 19.3894 134.334 18.8686C134.328 18.3951 134.189 18.0045 133.916 17.6967C133.644 17.383 133.262 17.1226 132.771 16.9155C132.286 16.7024 131.718 16.513 131.067 16.3473L128.998 15.8146C127.501 15.4299 126.317 14.8469 125.447 14.0657C124.583 13.2785 124.151 12.2339 124.151 10.9318C124.151 9.86056 124.441 8.92247 125.021 8.11754C125.607 7.31262 126.403 6.68821 127.409 6.24432C128.415 5.79451 129.554 5.5696 130.827 5.5696C132.117 5.5696 133.248 5.79451 134.218 6.24432C135.195 6.68821 135.961 7.3067 136.518 8.09979C137.074 8.88695 137.361 9.79249 137.379 10.8164H134.209ZM140.564 24V5.81818H143.857V13.5153H152.282V5.81818H155.585V24H152.282V16.2763H143.857V24H140.564ZM161.502 24H157.986L164.387 5.81818H168.453L174.863 24H171.348L166.491 9.54688H166.349L161.502 24ZM161.618 16.8711H171.206V19.5167H161.618V16.8711ZM177.258 24V5.81818H184.076C185.473 5.81818 186.645 6.06084 187.592 6.54616C188.545 7.03149 189.264 7.71212 189.749 8.58807C190.24 9.4581 190.486 10.4731 190.486 11.6332C190.486 12.7991 190.237 13.8112 189.74 14.6694C189.249 15.5217 188.524 16.1816 187.565 16.6491C186.606 17.1108 185.429 17.3416 184.032 17.3416H179.176V14.6072H183.588C184.405 14.6072 185.074 14.4948 185.594 14.2699C186.115 14.0391 186.5 13.7047 186.748 13.2667C187.003 12.8228 187.13 12.2783 187.13 11.6332C187.13 10.988 187.003 10.4376 186.748 9.98189C186.494 9.52024 186.106 9.17105 185.585 8.9343C185.065 8.69164 184.393 8.57031 183.57 8.57031H180.552V24H177.258ZM186.651 15.7614L191.152 24H187.476L183.055 15.7614H186.651ZM193.518 24V5.81818H200.336C201.733 5.81818 202.905 6.0786 203.852 6.59943C204.805 7.12026 205.524 7.83641 206.009 8.74787C206.5 9.65341 206.746 10.6832 206.746 11.8374C206.746 13.0033 206.5 14.0391 206.009 14.9446C205.518 15.8501 204.793 16.5633 203.834 17.0842C202.875 17.5991 201.694 17.8565 200.292 17.8565H195.773V15.1488H199.848C200.664 15.1488 201.333 15.0067 201.854 14.7227C202.375 14.4386 202.76 14.0479 203.008 13.5508C203.263 13.0536 203.39 12.4825 203.39 11.8374C203.39 11.1922 203.263 10.6241 203.008 10.1328C202.76 9.64157 202.372 9.25982 201.845 8.98757C201.324 8.7094 200.653 8.57031 199.83 8.57031H196.811V24H193.518ZM209.607 24V5.81818H221.432V8.57919H212.9V13.5153H220.819V16.2763H212.9V21.239H221.503V24H209.607ZM239.734 5.81818V24H236.804L228.237 11.6154H228.086V24H224.792V5.81818H227.74L236.298 18.2116H236.458V5.81818H239.734ZM243.323 24V5.81818H255.148V8.57919H246.616V13.5153H254.535V16.2763H246.616V21.239H255.219V24H243.323ZM258.508 24V5.81818H265.326C266.723 5.81818 267.895 6.06084 268.842 6.54616C269.795 7.03149 270.514 7.71212 270.999 8.58807C271.49 9.4581 271.736 10.4731 271.736 11.6332C271.736 12.7991 271.487 13.8112 270.99 14.6694C270.499 15.5217 269.774 16.1816 268.815 16.6491C267.856 17.1108 266.679 17.3416 265.282 17.3416H260.426V14.6072H264.838C265.655 14.6072 266.324 14.4948 266.844 14.2699C267.365 14.0391 267.75 13.7047 267.998 13.2667C268.253 12.8228 268.38 12.2783 268.38 11.6332C268.38 10.988 268.253 10.4376 267.998 9.98189C267.744 9.52024 267.356 9.17105 266.835 8.9343C266.315 8.69164 265.643 8.57031 264.82 8.57031H261.802V24H258.508ZM267.901 15.7614L272.402 24H268.726L264.305 15.7614H267.901Z" fill="black"/>
<path d="M28.51 1L28.48 1.52V1.53L28.42 2.83L28.27 4.78L28.16 4.94L27.92 5.28L27.61 5.72L27.29 5.25999L27.08 4.96001L26.96 4.79001L26.98 4.48L27.03 3.68001L27.01 3.62L26.46 4.13L26.36 4.21001L26.18 4.39L25.48 5.08L5.02 25.11L23.36 18.93L24.32 7.06L26.38 5.11L25.25 19.52C25.29 19.93 25.01 20.24 24.95 20.3L17.66 27.26L17.45 27.46L18.75 27.38H18.76L19.36 27.77L19.73 28.01L19.37 28.27L18.79 28.69L16.35 28.89L15.48 28.92L14.91 28.94V27.75L14.87 25.02C14.87 25.02 14.87 24.99 14.87 24.95C14.87 24.95 14.87 24.95 14.87 24.94L15.24 24.37L15.26 24.34L15.5 23.97L15.76 24.33L15.78 24.36L16.18 24.91V24.92L16.22 25.99L16.44 25.77L20.48 21.9L0.0699997 28.6L7.6 8.28L3.19 12.48L3.16 12.51L4.23 12.49H4.24L4.82 12.88L4.85 12.9L4.92 12.94L5.24 13.15L4.92 13.39L4.86 13.43L4.83 13.45L4.27 13.87H4.26L1.49 13.96H1.44L0.91 13.97L0.110001 13.98L0.209999 12.91V12.89L0.310001 9.79001C0.310001 9.79001 0.31 9.75001 0.32 9.68001V9.67L0.68 9.15001L0.73 9.08L0.759998 9.05L1.02 8.67L1.29 9.06L1.31 9.09L1.36 9.16L1.71 9.68001V9.69C1.71 9.7 1.71 9.71 1.71 9.72L1.68 11.23L1.96 10.95L9.17 4.08C9.47 3.74 9.78 3.69 9.94 3.69C9.96 3.69 9.98 3.69 9.99 3.69L22.87 2.87L23.24 3.78L21.99 4.88L10.66 5.57001L3.68 23.69L24.31 3.56L24.32 3.55L25.15 2.77L25.62 2.33L24.69 2.3H24.68L24.53 2.2L24.19 1.96001L23.75 1.65001L24.21 1.33L24.51 1.12L24.53 1.11L24.67 1.00999C24.68 1.00999 24.68 1.00999 24.69 1.00999C24.74 0.999995 24.8 1 24.85 1L26.16 1.02H28.51V1Z" fill="#196DF4"/>
</svg>
