<svg width="490" height="446" viewBox="0 0 490 446" fill="none" xmlns="http://www.w3.org/2000/svg">
<path id="path1" d="M489.949 0.382952L489.512 8.69574V8.89849L488.491 29.6016L485.986 60.7351L485.938 60.7802L484.017 63.2583L479.956 68.6424L474.68 75.581L469.112 68.2595L465.49 63.461L463.399 60.7351L463.763 55.8241L464.614 43.0958L464.298 42.1046L454.743 50.1696L452.992 51.4086L449.88 54.2696L437.747 65.2632L85.4634 384.731L401.179 286.127L417.64 96.6896L453.065 65.6012L433.565 295.543C434.198 302.076 429.408 307.032 428.387 308.024L302.927 418.974L299.304 422.195L321.624 420.866H321.721L332.128 427.151L338.498 431.003L332.298 435.216L322.256 441.997L280.218 445.128L265.265 445.579L255.442 445.917V426.903L254.737 383.289C254.737 383.289 254.688 382.884 254.785 382.208C254.785 382.163 254.785 382.163 254.785 382.118V382.073L261.156 373.017L261.569 372.476L265.727 366.574L270.273 372.318L270.638 372.769L277.519 381.532V381.622L278.151 398.608L281.993 395.049L351.506 333.368L0 440.307L129.715 116.064L53.8553 183.039L53.369 183.49L71.7503 183.197H71.9691L81.9621 189.482L82.5457 189.865L83.7127 190.563L89.1591 193.943L83.7127 197.75L82.7402 198.448L82.2539 198.786L72.577 205.522L72.5284 205.567H72.4312L24.6787 206.941H23.7791L14.71 207.031L0.875384 207.166L2.6503 190.135L2.69891 189.842L4.47382 140.394C4.47382 140.349 4.47382 139.695 4.64401 138.704V138.569L4.69263 138.524L10.844 130.256L11.6464 129.175L12.084 128.634L16.6307 122.507L21.2261 128.657L21.5908 129.152L22.4418 130.301L28.5202 138.524C28.5688 138.569 28.5688 138.614 28.5688 138.659C28.5688 138.772 28.6174 138.952 28.6174 139.065L28.1798 163.214L33.0426 158.754L157.214 49.2009C162.344 43.7942 167.742 42.9607 170.513 42.9607C170.878 42.9607 171.194 42.9607 171.462 43.0057L393.253 29.8945L399.672 44.3574L378.081 61.8841L182.913 72.8326L62.7541 361.978L418.004 40.843L418.223 40.6403L432.544 28.2274L440.714 21.1537L424.739 20.7482H424.569L422.016 19.1036L416.205 15.3415L408.717 10.4529L416.619 5.29405L421.797 1.9374L422.065 1.73465L424.472 0.157696C424.569 0.157696 424.642 0.112646 424.739 0.157696C425.59 0.0225288 426.563 0 427.56 0L450.147 0.292862H489.949L489.949 0.382952Z" fill="#196DF4"/>
</svg>
